<svg xmlns="http://www.w3.org/2000/svg" width="1200" height="900" viewBox="0 0 1200 900" aria-hidden="true">
<defs>
  <linearGradient id="sky" x1="0" y1="0" x2="0" y2="1"><stop offset="0" stop-color="#E8F0EE"/><stop offset="1" stop-color="#E8D9BF"/></linearGradient>
  <linearGradient id="night" x1="0" y1="0" x2="1" y2="1"><stop offset="0" stop-color="#2D4856"/><stop offset="1" stop-color="#6D8790"/></linearGradient>
  <linearGradient id="water" x1="0" y1="0" x2="1" y2="0"><stop offset="0" stop-color="#C3D9D7"/><stop offset="1" stop-color="#96B9B8"/></linearGradient>
  <linearGradient id="paper" x1="0" y1="0" x2="1" y2="1"><stop offset="0" stop-color="#F3ECDC"/><stop offset="1" stop-color="#D8CAB0"/></linearGradient>
  <filter id="shadow" x="-20%" y="-20%" width="140%" height="140%"><feDropShadow dx="0" dy="14" stdDeviation="18" flood-color="#14211D" flood-opacity=".13"/></filter>
  <filter id="grain" x="0" y="0" width="100%" height="100%"><feTurbulence type="fractalNoise" baseFrequency=".65" numOctaves="2" seed="12"/><feColorMatrix type="saturate" values="0"/><feComponentTransfer><feFuncA type="table" tableValues="0 .035"/></feComponentTransfer></filter>
  <pattern id="grid" width="44" height="44" patternUnits="userSpaceOnUse"><path d="M44 0H0V44" fill="none" stroke="#FFF" stroke-opacity=".12"/></pattern>
</defs><rect width="1200" height="900" fill="url(#sky)"/><rect width="1200" height="900" fill="#E5EFEE"/><rect x="520" y="375" width="115" height="145" rx="4" fill="#B3C3C0"/><rect x="614" y="340" width="95" height="180" rx="4" fill="#98ADA9"/><path d="M614 340H709L691 320H632Z" fill="#98ADA9"/><rect x="692" y="390" width="120" height="130" rx="4" fill="#78918D"/><rect x="790" y="325" width="90" height="195" rx="4" fill="#B3C3C0"/><path d="M790 325H880L862 305H808Z" fill="#B3C3C0"/><rect x="864" y="370" width="130" height="150" rx="4" fill="#98ADA9"/><rect x="971" y="355" width="95" height="165" rx="4" fill="#78918D"/><path d="M971 355H1066L1048 335H989Z" fill="#78918D"/><g transform="translate(650 155)"><rect y="110" width="88" height="255" rx="4" fill="#6D8783"/><circle cx="44" cy="92" r="58" fill="#F0F1E8"/><rect x="15" y="70" width="58" height="45" rx="16" fill="#D8E4DE"/></g><path d="M520 522L330 670M570 522L390 670" stroke="#8E9D98" stroke-width="6"/><rect y="640" width="1200" height="260" fill="#7A5B49"/><g transform="translate(120 670) scale(1.2)" filter="url(#shadow)"><ellipse cx="64" cy="96" rx="70" ry="10" fill="#C9C4B6" opacity=".55"/><rect x="8" y="18" width="112" height="74" rx="24" fill="#F4F0E4"/><ellipse cx="64" cy="26" rx="48" ry="14" fill="#5A3E2D"/><path d="M112 38C150 34 155 78 118 82" fill="none" stroke="#F4F0E4" stroke-width="12" stroke-linecap="round"/></g><g transform="translate(330 716) scale(1.08)" filter="url(#shadow)"><path d="M8 70C20 14 118 2 150 50C174 84 140 108 110 86C86 69 64 72 42 91C22 108 2 96 8 70Z" fill="#D89A58"/><path d="M36 63C56 30 105 27 126 54" fill="none" stroke="#F0C987" stroke-width="10" stroke-linecap="round" opacity=".75"/></g><g transform="translate(690 715)" filter="url(#shadow)"><rect width="190" height="112" rx="24" fill="#0B6B61"/><path d="M132 38q18 18 0 36M113 29q30 27 0 54M94 21q42 36 0 70" fill="none" stroke="#EAF2EE" stroke-width="5" stroke-linecap="round" opacity=".88"/></g><circle cx="925" cy="795" r="20" fill="#C79B52" stroke="#8C7655" stroke-width="3"/><circle cx="925" cy="795" r="10" fill="none" stroke="#F1DEC0" stroke-width="2"/><circle cx="969" cy="803" r="20" fill="#B8BBB4" stroke="#8C7655" stroke-width="3"/><circle cx="969" cy="803" r="10" fill="none" stroke="#F1DEC0" stroke-width="2"/><circle cx="1013" cy="795" r="20" fill="#A96E42" stroke="#8C7655" stroke-width="3"/><circle cx="1013" cy="795" r="10" fill="none" stroke="#F1DEC0" stroke-width="2"/><circle cx="1057" cy="803" r="20" fill="#D4AF68" stroke="#8C7655" stroke-width="3"/><circle cx="1057" cy="803" r="10" fill="none" stroke="#F1DEC0" stroke-width="2"/><circle cx="1101" cy="795" r="20" fill="#B8BBB4" stroke="#8C7655" stroke-width="3"/><circle cx="1101" cy="795" r="10" fill="none" stroke="#F1DEC0" stroke-width="2"/><rect width="1200" height="900" filter="url(#grain)" opacity=".45"/></svg>