<svg xmlns="http://www.w3.org/2000/svg" width="1200" height="900" viewBox="0 0 1200 900" aria-hidden="true">
<defs>
  <linearGradient id="sky" x1="0" y1="0" x2="0" y2="1"><stop offset="0" stop-color="#E8F0EE"/><stop offset="1" stop-color="#E8D9BF"/></linearGradient>
  <linearGradient id="night" x1="0" y1="0" x2="1" y2="1"><stop offset="0" stop-color="#2D4856"/><stop offset="1" stop-color="#6D8790"/></linearGradient>
  <linearGradient id="water" x1="0" y1="0" x2="1" y2="0"><stop offset="0" stop-color="#C3D9D7"/><stop offset="1" stop-color="#96B9B8"/></linearGradient>
  <linearGradient id="paper" x1="0" y1="0" x2="1" y2="1"><stop offset="0" stop-color="#F3ECDC"/><stop offset="1" stop-color="#D8CAB0"/></linearGradient>
  <filter id="shadow" x="-20%" y="-20%" width="140%" height="140%"><feDropShadow dx="0" dy="14" stdDeviation="18" flood-color="#14211D" flood-opacity=".13"/></filter>
  <filter id="grain" x="0" y="0" width="100%" height="100%"><feTurbulence type="fractalNoise" baseFrequency=".65" numOctaves="2" seed="12"/><feColorMatrix type="saturate" values="0"/><feComponentTransfer><feFuncA type="table" tableValues="0 .035"/></feComponentTransfer></filter>
  <pattern id="grid" width="44" height="44" patternUnits="userSpaceOnUse"><path d="M44 0H0V44" fill="none" stroke="#FFF" stroke-opacity=".12"/></pattern>
</defs><rect width="1200" height="900" fill="url(#sky)"/><rect width="1200" height="900" fill="#EDE8DF"/><rect x="570" y="365" width="115" height="145" rx="4" fill="#909EA0"/><rect x="664" y="330" width="95" height="180" rx="4" fill="#6E8084"/><path d="M664 330H759L741 310H682Z" fill="#6E8084"/><rect x="742" y="380" width="120" height="130" rx="4" fill="#50676A"/><rect x="840" y="315" width="90" height="195" rx="4" fill="#909EA0"/><path d="M840 315H930L912 295H858Z" fill="#909EA0"/><rect x="914" y="360" width="130" height="150" rx="4" fill="#6E8084"/><rect x="1021" y="345" width="95" height="165" rx="4" fill="#50676A"/><path d="M1021 345H1116L1098 325H1039Z" fill="#50676A"/><g transform="translate(600 80)" opacity=".88"><path d="M40 320H285L260 290H65Z" fill="#8E6550"/><path d="M72 270H252L228 244H94Z" fill="#7A5645"/><path d="M106 226H220L205 205H120Z" fill="#6C4C40"/></g><rect y="640" width="1200" height="260" fill="#6D5143"/><g transform="translate(115 675) scale(1.22)" filter="url(#shadow)"><ellipse cx="90" cy="40" rx="88" ry="36" fill="#D9D1BE"/><path d="M8 42Q90 122 172 42" fill="#EFE9DA"/><ellipse cx="90" cy="34" rx="72" ry="24" fill="#A66049"/><path d="M35 34Q70 10 105 38T155 30" fill="none" stroke="#E7C37A" stroke-width="8"/><circle cx="62" cy="28" r="6" fill="#789B69"/><circle cx="128" cy="36" r="7" fill="#789B69"/></g><g transform="translate(415 680) scale(0.95)" filter="url(#shadow)"><ellipse cx="64" cy="96" rx="70" ry="10" fill="#C9C4B6" opacity=".55"/><rect x="8" y="18" width="112" height="74" rx="24" fill="#F4F0E4"/><ellipse cx="64" cy="26" rx="48" ry="14" fill="#5A3E2D"/><path d="M112 38C150 34 155 78 118 82" fill="none" stroke="#F4F0E4" stroke-width="12" stroke-linecap="round"/></g><g transform="translate(720 720)" filter="url(#shadow)"><rect width="190" height="110" rx="24" fill="#526E6A"/><path d="M132 38q18 18 0 36M113 29q30 27 0 54M94 21q42 36 0 70" fill="none" stroke="#EAF2EE" stroke-width="5" stroke-linecap="round" opacity=".88"/></g><g transform="translate(955 675)" filter="url(#shadow)"><rect width="70" height="120" rx="14" fill="#D8C3A7"/><rect x="78" width="70" height="120" rx="14" fill="#B6C7B6"/><rect x="156" width="70" height="120" rx="14" fill="#CFA99E"/></g><rect width="1200" height="900" filter="url(#grain)" opacity=".45"/></svg>